# xmcd
#
# Track frame offsets:
#	187
#	21992
#	40702
#	57517
#	76772
#	92212
#	107957
#	127052
#	145165
#	160210
#
# Disc length: 2409 seconds
#
# Revision: 1
# Processed by: cddbd v1.5.1PL0 Copyright (c) Steve Scherf et al.
# Submitted via: CDex 1.50Beta5
#
DISCID=8509670a
DTITLE=TIM HARDIN TRIO - JAZZで聴く桑田佳祐作品集
DYEAR=1990
DGENRE=
TTITLE0=いとしのエリー
TTITLE1=フリフリ’65
TTITLE2=夏をあきらめて
TTITLE3=いつか何処かで
TTITLE4=忘れられたBig Wave
TTITLE5=チャコの海岸物語
TTITLE6=メロディ
TTITLE7=BEY-BEY MY LOVE
TTITLE8=悲しい気持ち
TTITLE9=さよならベイビー
EXTD=
EXTT0=
EXTT1=
EXTT2=
EXTT3=
EXTT4=
EXTT5=
EXTT6=
EXTT7=
EXTT8=
EXTT9=
PLAYORDER=
